<svg width="512" height="512" viewBox="0 0 512 512" fill="none" xmlns="http://www.w3.org/2000/svg">
<g clip-path="url(#clip0_383_38)">
<path d="M121 0V95C121 182.328 177.976 256.57 256 283.838C334.024 256.57 391 182.328 391 95V0H121Z" fill="#F57C00"/>
<path d="M114.539 195.818C65.873 155.375 34.604 95.982 30.469 30H91V0H0V15C0 45.516 5.146 75.438 15.296 103.934C25.106 131.475 39.357 157.08 57.653 180.038C84.731 214.016 119.925 240.831 159.387 258.055C141.081 239.947 125.924 218.913 114.539 195.818ZM421 0V30H481.531C477.396 95.982 446.127 155.375 397.461 195.818C386.076 218.913 370.919 239.948 352.612 258.055C392.074 240.831 427.268 214.016 454.346 180.038C472.643 157.08 486.894 131.475 496.703 103.934C506.854 75.438 512 45.516 512 15V0H421ZM371 482V362H286V304.06C279.428 307.07 272.72 309.772 265.897 312.159L256 315.618L246.103 312.159C239.28 309.772 232.572 307.07 226 304.06V362H141V482H111V512H401V482H371ZM301 442H211V412H301V442Z" fill="#F57C00"/>
</g>
<defs>
<clipPath id="clip0_383_38">
<rect width="512" height="512" fill="white"/>
</clipPath>
</defs>
</svg>
