<svg width="406" height="512" viewBox="0 0 406 512" fill="none" xmlns="http://www.w3.org/2000/svg">
<path d="M256.667 192C252.503 191.916 248.352 191.513 244.251 190.795C232.584 189.205 221.47 184.834 211.845 178.051C202.22 171.268 194.366 162.271 188.944 151.819C173.552 170.379 141.712 189.835 75.8027 191.776C72.2293 192 68.4427 192 64.6667 192C61.8377 192 59.1246 190.876 57.1242 188.876C55.1238 186.875 54 184.162 54 181.333V149.333C53.9241 131.212 58.5092 113.375 67.3147 97.5369C76.1203 81.6985 88.8505 68.3903 104.283 58.8907C121.26 48.4778 140.788 42.9663 160.704 42.9663C180.62 42.9663 200.148 48.4778 217.125 58.8907C232.543 68.4002 245.258 81.7124 254.05 97.5501C262.842 113.388 267.416 131.219 267.333 149.333V181.333C267.333 184.162 266.21 186.875 264.209 188.876C262.209 190.876 259.496 192 256.667 192ZM160.667 64C138.05 64.0508 116.375 73.0575 100.383 89.0496C84.3908 105.042 75.384 126.717 75.3333 149.333V170.453C178.896 167.339 181.915 119.531 182 117.195C182 114.366 183.124 111.653 185.124 109.652C187.125 107.652 189.838 106.528 192.667 106.528C195.496 106.528 198.209 107.652 200.209 109.652C202.21 111.653 203.333 114.366 203.333 117.195C202.365 129.701 206.262 142.099 214.211 151.803C222.16 161.506 233.548 167.767 246 169.28V149.333C245.946 126.718 236.939 105.044 220.947 89.0527C204.956 73.0612 183.282 64.0536 160.667 64ZM97.1893 448C94.6611 448.001 92.2147 447.104 90.2864 445.469C88.3582 443.833 87.0734 441.566 86.6613 439.072C85.3399 429.676 85.9064 420.111 88.3278 410.936C90.7491 401.762 94.9766 393.163 100.763 385.643C113.733 370.4 133.851 362.667 160.667 362.667C162.081 362.667 163.481 362.948 164.786 363.494C166.091 364.04 167.274 364.84 168.266 365.847C169.259 366.855 170.041 368.05 170.568 369.362C171.094 370.675 171.355 372.079 171.333 373.493C170.96 399.264 154.981 448 97.1893 448ZM148.517 384.693C136.526 385.424 125.266 390.7 117.029 399.445C111.067 407.009 107.7 416.293 107.429 425.92C117.787 424.347 127.367 419.494 134.763 412.074C142.159 404.653 146.979 395.056 148.517 384.693Z" fill="white"/>
<path d="M224.144 448C166.352 448 150.373 399.264 150 373.493C149.979 372.079 150.239 370.675 150.766 369.362C151.292 368.05 152.074 366.855 153.067 365.847C154.06 364.84 155.243 364.04 156.547 363.494C157.852 362.948 159.252 362.667 160.667 362.667C187.483 362.667 207.6 370.4 220.571 385.643C226.359 393.162 230.586 401.761 233.006 410.936C235.426 420.111 235.988 429.677 234.661 439.072C234.25 441.565 232.966 443.83 231.04 445.465C229.114 447.1 226.67 447.998 224.144 448ZM172.752 384.693C174.235 395.09 179.044 404.727 186.46 412.162C193.877 419.597 203.501 424.431 213.893 425.941C213.636 416.237 210.233 406.878 204.197 399.275C195.94 390.608 184.702 385.397 172.752 384.693ZM256.667 245.333H246V224H256.667C259.496 224 262.209 222.876 264.209 220.876C266.21 218.875 267.333 216.162 267.333 213.333C267.333 210.504 266.21 207.791 264.209 205.791C262.209 203.79 259.496 202.667 256.667 202.667H246V181.333H256.667C265.154 181.333 273.293 184.705 279.294 190.706C285.295 196.707 288.667 204.846 288.667 213.333C288.667 221.82 285.295 229.96 279.294 235.961C273.293 241.962 265.154 245.333 256.667 245.333ZM75.3333 245.333H64.6667C56.1797 245.333 48.0404 241.962 42.0392 235.961C36.0381 229.96 32.6667 221.82 32.6667 213.333C32.6667 204.846 36.0381 196.707 42.0392 190.706C48.0404 184.705 56.1797 181.333 64.6667 181.333H75.3333V202.667H64.6667C61.8377 202.667 59.1246 203.79 57.1242 205.791C55.1238 207.791 54 210.504 54 213.333C54 216.162 55.1238 218.875 57.1242 220.876C59.1246 222.876 61.8377 224 64.6667 224H75.3333V245.333Z" fill="white"/>
<path d="M160.667 320C135.215 319.972 110.813 309.848 92.8156 291.851C74.8182 273.854 64.6949 249.452 64.6667 224V181.333H86V224C86 243.803 93.8666 262.795 107.869 276.797C121.872 290.8 140.864 298.667 160.667 298.667C180.47 298.667 199.461 290.8 213.464 276.797C227.467 262.795 235.333 243.803 235.333 224V181.333H256.667V224C256.638 249.452 246.515 273.854 228.518 291.851C210.52 309.848 186.119 319.972 160.667 320ZM54 458.667H96.6667V480H54V458.667ZM160.667 384C151.058 383.93 141.608 381.537 133.124 377.025C124.64 372.514 117.373 366.018 111.941 358.091C109.132 354.248 107.412 349.719 106.963 344.98C106.514 340.241 107.353 335.469 109.392 331.168C111.226 327.68 114.009 324.781 117.419 322.805C120.829 320.829 124.728 319.857 128.667 320V341.333C128.027 341.557 127.973 343.776 129.445 345.909C132.884 351.041 137.528 355.251 142.971 358.173C148.414 361.094 154.49 362.637 160.667 362.667V384Z" fill="white"/>
<path d="M150.128 384C143.013 384 80.2187 382.933 66.3093 345.013C64.7839 340.736 64.343 336.146 65.0262 331.656C65.7094 327.166 67.4953 322.916 70.224 319.285C74.6875 313.366 80.3609 308.466 86.8662 304.911C93.3716 301.355 100.56 299.227 107.952 298.667H128.667V320H107.952C99.9876 321.139 92.7481 325.246 87.6853 331.499C85.3067 334.912 86.0107 336.832 86.3093 337.653C93.072 356.011 128.176 362.667 150.128 362.667V384ZM160.421 384V362.667C166.591 362.631 172.659 361.085 178.094 358.164C183.529 355.243 188.166 351.036 191.6 345.909C192.126 345.227 192.501 344.44 192.697 343.601C192.894 342.762 192.909 341.891 192.741 341.045L192.421 320C196.357 319.855 200.254 320.826 203.663 322.8C207.071 324.774 209.852 327.671 211.685 331.157C213.729 335.456 214.573 340.228 214.128 344.967C213.683 349.706 211.966 354.237 209.157 358.08C203.722 366.006 196.452 372.502 187.967 377.015C179.482 381.527 170.032 383.924 160.421 384Z" fill="white"/>
<path d="M170.96 384V362.667C192.912 362.667 228.016 356.011 234.757 337.653C235.067 336.832 235.76 334.912 233.381 331.499C228.324 325.251 221.093 321.144 213.136 320H192.667V298.667H213.136C220.531 299.227 227.721 301.357 234.229 304.914C240.736 308.471 246.411 313.374 250.875 319.296C253.6 322.926 255.383 327.175 256.064 331.663C256.745 336.151 256.304 340.738 254.779 345.013C240.88 382.933 178.075 384 170.96 384ZM299.333 106.667C296.504 106.667 293.791 105.543 291.791 103.542C289.79 101.542 288.667 98.829 288.667 96V10.6667C288.666 8.88952 289.11 7.14047 289.958 5.57842C290.805 4.01637 292.03 2.69082 293.52 1.72222C295.01 0.753612 296.718 0.172638 298.49 0.0320764C300.261 -0.108485 302.04 0.19582 303.664 0.917347L399.664 43.584C401.551 44.4215 403.154 45.7883 404.279 47.5189C405.404 49.2494 406.003 51.2692 406.003 53.3334C406.003 55.3975 405.404 57.4173 404.279 59.1478C403.154 60.8784 401.551 62.2452 399.664 63.0827L303.664 105.749C302.301 106.356 300.825 106.669 299.333 106.667ZM310 27.0827V79.584L369.072 53.3334L310 27.0827Z" fill="white"/>
<path d="M288.667 96H310V245.333H288.667V96Z" fill="white"/>
<path d="M342 330.667H299.333C290.846 330.667 282.707 327.295 276.706 321.294C270.705 315.293 267.333 307.154 267.333 298.667V266.667C267.333 258.18 270.705 250.04 276.706 244.039C282.707 238.038 290.846 234.667 299.333 234.667H320.667C329.154 234.667 337.293 238.038 343.294 244.039C349.295 250.04 352.667 258.18 352.667 266.667V320C352.667 322.829 351.543 325.542 349.542 327.543C347.542 329.543 344.829 330.667 342 330.667ZM299.333 256C296.504 256 293.791 257.124 291.791 259.124C289.79 261.125 288.667 263.838 288.667 266.667V298.667C288.667 301.496 289.79 304.209 291.791 306.209C293.791 308.21 296.504 309.333 299.333 309.333H331.333V266.667C331.333 263.838 330.21 261.125 328.209 259.124C326.209 257.124 323.496 256 320.667 256H299.333ZM123.333 358.4L112.667 339.904C114.284 338.963 115.627 337.615 116.562 335.995C117.498 334.375 117.994 332.538 118 330.667V298.667H139.333V330.667C139.319 336.284 137.834 341.799 135.027 346.664C132.22 351.53 128.189 355.576 123.333 358.4Z" fill="white"/>
<path d="M374 458.667H310V437.333H374C376.829 437.333 379.542 436.21 381.542 434.209C383.543 432.209 384.667 429.496 384.667 426.667V407.851L346.075 330.667H342V309.333H352.667C354.658 309.322 356.612 309.869 358.309 310.912C360.006 311.954 361.377 313.451 362.267 315.232L404.933 400.565C405.653 402.051 406.018 403.683 406 405.333V426.667C406 435.154 402.629 443.293 396.627 449.294C390.626 455.295 382.487 458.667 374 458.667Z" fill="white"/>
<path d="M289.797 324.768L308.88 315.232L351.547 400.565L332.453 410.101L289.797 324.768ZM197.904 358.304C193.078 355.479 189.072 351.444 186.283 346.597C183.494 341.75 182.017 336.259 182 330.667V298.667H203.333V330.667C203.337 332.535 203.832 334.37 204.768 335.988C205.704 337.605 207.048 338.948 208.667 339.883L197.904 358.304Z" fill="white"/>
<path d="M313.627 369.888C309.744 367.819 285.467 363.349 235.205 362.731L235.483 341.397C331.333 342.581 331.333 354.187 331.333 362.667H310C309.961 364.076 310.271 365.474 310.904 366.734C311.537 367.994 312.473 369.078 313.627 369.888Z" fill="white"/>
<path d="M278 512H11.3333C8.50436 512 5.79125 510.876 3.79086 508.876C1.79047 506.875 0.666664 504.162 0.666664 501.333V437.333C0.68346 413.952 9.22422 391.379 24.689 373.843C40.1538 356.306 61.4817 345.01 84.6773 342.069L87.3227 363.243C69.2847 365.532 52.7001 374.319 40.6755 387.957C28.6508 401.596 22.0111 419.151 22 437.333V490.667H267.333V469.333C267.333 466.504 268.457 463.791 270.458 461.791C272.458 459.79 275.171 458.667 278 458.667H299.333V352H320.667V469.333C320.667 472.162 319.543 474.875 317.542 476.876C315.542 478.876 312.829 480 310 480H288.667V501.333C288.667 504.162 287.543 506.875 285.542 508.876C283.542 510.876 280.829 512 278 512ZM214 64H192.667V53.3333C192.667 44.8464 189.295 36.7071 183.294 30.7059C177.293 24.7048 169.154 21.3333 160.667 21.3333C152.18 21.3333 144.04 24.7048 138.039 30.7059C132.038 36.7071 128.667 44.8464 128.667 53.3333V64H107.333V53.3333C107.333 39.1885 112.952 25.6229 122.954 15.621C132.956 5.61903 146.522 0 160.667 0C174.812 0 188.377 5.61903 198.379 15.621C208.381 25.6229 214 39.1885 214 53.3333V64Z" fill="white"/>
<path d="M267.333 352H288.667V437.333H267.333V352Z" fill="white"/>
</svg>
