<svg width="392" height="512" viewBox="0 0 392 512" fill="none" xmlns="http://www.w3.org/2000/svg">
<path d="M142.209 303.538L141.254 307.508L196 344.975L250.73 307.513L249.791 303.537C215.988 320.478 176.01 320.476 142.209 303.538ZM196 0C142.987 0 108.302 39.3357 100.975 90.3529H291.026C283.698 39.3357 249.013 0 196 0ZM301.412 120.471H90.5882L60.4706 165.647H331.529L301.412 120.471ZM165.882 451.765H226.118V512H165.882V451.765ZM180.941 369.455L101.396 316.2C45.1618 318.434 0.235291 364.736 0.235291 421.527V511.88H60.4706V451.765H90.5882V511.88H135.765V421.647H180.941V369.455ZM290.607 316.2L211.059 369.453V421.647H256.235V511.88H301.412V451.765H331.529V511.88H391.765V421.527C391.765 364.855 346.964 318.445 290.607 316.2ZM286.353 195.765H105.647C105.647 245.666 146.099 286.118 196 286.118C245.901 286.118 286.353 245.666 286.353 195.765Z" fill="white"/>
</svg>
