<svg width="433" height="512" viewBox="0 0 433 512" fill="none" xmlns="http://www.w3.org/2000/svg">
<path d="M385 480H196.84C192.597 480 188.527 478.314 185.526 475.314C182.526 472.313 180.84 468.243 180.84 464C180.84 459.757 182.526 455.687 185.526 452.686C188.527 449.686 192.597 448 196.84 448H385C389.243 448 393.313 446.314 396.314 443.314C399.314 440.313 401 436.243 401 432V176C401 171.757 399.314 167.687 396.314 164.686C393.313 161.686 389.243 160 385 160H193C188.757 160 184.687 161.686 181.686 164.686C178.686 167.687 177 171.757 177 176V239.84C177 244.083 175.314 248.153 172.314 251.154C169.313 254.154 165.243 255.84 161 255.84C156.757 255.84 152.687 254.154 149.686 251.154C146.686 248.153 145 244.083 145 239.84V176C145.013 163.274 150.074 151.072 159.073 142.073C168.072 133.074 180.274 128.013 193 128H385C397.726 128.013 409.928 133.074 418.927 142.073C427.926 151.072 432.987 163.274 433 176V432C432.987 444.726 427.926 456.928 418.927 465.927C409.928 474.926 397.726 479.987 385 480Z" fill="white"/>
<path d="M289 400C284.757 400 280.687 398.314 277.686 395.314C274.686 392.313 273 388.243 273 384V224C273 219.757 274.686 215.687 277.686 212.686C280.687 209.686 284.757 208 289 208C293.243 208 297.313 209.686 300.314 212.686C303.314 215.687 305 219.757 305 224V384C305 388.243 303.314 392.313 300.314 395.314C297.313 398.314 293.243 400 289 400ZM225 276C220.757 276 216.687 274.314 213.686 271.314C210.686 268.313 209 264.243 209 260V224C209 219.757 210.686 215.687 213.686 212.686C216.687 209.686 220.757 208 225 208C229.243 208 233.313 209.686 236.314 212.686C239.314 215.687 241 219.757 241 224V260C241 264.243 239.314 268.313 236.314 271.314C233.313 274.314 229.243 276 225 276ZM353 400C348.757 400 344.687 398.314 341.686 395.314C338.686 392.313 337 388.243 337 384V224C337 219.757 338.686 215.687 341.686 212.686C344.687 209.686 348.757 208 353 208C357.243 208 361.313 209.686 364.314 212.686C367.314 215.687 369 219.757 369 224V384C369 388.243 367.314 392.313 364.314 395.314C361.313 398.314 357.243 400 353 400ZM337 160H241C236.757 160 232.687 158.314 229.686 155.314C226.686 152.313 225 148.243 225 144V16C225 11.7565 226.686 7.68687 229.686 4.68629C232.687 1.68571 236.757 0 241 0L337 0C341.243 0 345.313 1.68571 348.314 4.68629C351.314 7.68687 353 11.7565 353 16V144C353 148.243 351.314 152.313 348.314 155.314C345.313 158.314 341.243 160 337 160ZM257 128H321V32H257V128Z" fill="white"/>
<path d="M369 32H209C204.757 32 200.687 30.3143 197.686 27.3137C194.686 24.3131 193 20.2435 193 16C193 11.7565 194.686 7.68687 197.686 4.68629C200.687 1.68571 204.757 0 209 0L369 0C373.243 0 377.313 1.68571 380.314 4.68629C383.314 7.68687 385 11.7565 385 16C385 20.2435 383.314 24.3131 380.314 27.3137C377.313 30.3143 373.243 32 369 32ZM124.136 512C123.333 512 122.531 511.941 121.736 511.824C108.456 509.808 40.776 496.928 12.456 440.688C4.37227 424.492 0.446281 406.539 1.032 388.448V262C1.02965 258.599 2.11102 255.286 4.1192 252.541C6.12738 249.796 8.95789 247.763 12.2 246.736L119.304 212.88C122.45 211.894 125.822 211.894 128.968 212.88L236.072 246.736C239.314 247.763 242.145 249.796 244.153 252.541C246.161 255.286 247.242 258.599 247.24 262V388.864C247.782 406.818 243.856 424.626 235.816 440.688C207.544 496.912 139.816 509.808 126.536 511.808C125.742 511.93 124.94 511.995 124.136 512ZM33.032 273.712V388.864C32.5467 401.824 35.3077 414.699 41.064 426.32C61.032 466.016 111.368 477.472 124.136 479.776C136.936 477.472 187.256 466.016 207.224 426.32C212.938 414.827 215.699 402.091 215.256 389.264V273.728L124.136 244.928L33.032 273.712Z" fill="white"/>
<path d="M117.56 400.928C115.459 400.93 113.378 400.517 111.436 399.713C109.495 398.908 107.732 397.728 106.248 396.24L73.224 363.2C70.3095 360.182 68.6968 356.141 68.7332 351.946C68.7697 347.75 70.4524 343.737 73.4189 340.771C76.3854 337.804 80.3984 336.122 84.5936 336.085C88.7887 336.049 92.8304 337.661 95.848 340.576L117.56 362.288L168.568 311.296C170.044 309.768 171.809 308.549 173.762 307.71C175.714 306.872 177.813 306.43 179.938 306.412C182.062 306.394 184.169 306.798 186.135 307.603C188.102 308.407 189.888 309.595 191.39 311.098C192.893 312.6 194.081 314.386 194.885 316.353C195.69 318.319 196.094 320.426 196.076 322.55C196.058 324.675 195.616 326.774 194.778 328.726C193.939 330.679 192.72 332.444 191.192 333.92L128.872 396.24C127.389 397.729 125.626 398.909 123.684 399.714C121.743 400.518 119.661 400.931 117.56 400.928ZM369.016 512C364.773 512 360.703 510.314 357.702 507.314C354.702 504.313 353.016 500.243 353.016 496V464C353.016 459.757 354.702 455.687 357.702 452.686C360.703 449.686 364.773 448 369.016 448C373.259 448 377.329 449.686 380.33 452.686C383.33 455.687 385.016 459.757 385.016 464V496C385.016 500.243 383.33 504.313 380.33 507.314C377.329 510.314 373.259 512 369.016 512Z" fill="white"/>
</svg>
