<svg width="374" height="457" viewBox="0 0 374 457" fill="none" xmlns="http://www.w3.org/2000/svg">
<path d="M365.12 375.489H346.56V214.769C342.136 216.666 337.373 217.645 332.56 217.649H330.56V375.489H275.6L257.44 350.609C256.684 349.574 256.187 348.373 255.992 347.106C255.797 345.839 255.91 344.543 256.32 343.329L274.56 289.569C274.974 288.498 275.152 287.351 275.083 286.205C275.014 285.06 274.699 283.942 274.16 282.929C273.671 281.9 272.98 280.98 272.128 280.224C271.276 279.468 270.28 278.892 269.2 278.529L212.08 258.849H172.08C167.391 266.242 160.901 272.323 153.219 276.52C145.537 280.718 136.914 282.896 128.16 282.849H95.6L46.24 440.049H8C5.87827 440.049 3.84343 440.892 2.34314 442.392C0.842849 443.892 0 445.927 0 448.049C0 450.171 0.842849 452.206 2.34314 453.706C3.84343 455.206 5.87827 456.049 8 456.049H148.32C149.819 456.052 151.289 455.634 152.562 454.841C153.835 454.049 154.86 452.915 155.52 451.569L184.88 391.489H365.12C367.242 391.489 369.277 390.646 370.777 389.146C372.277 387.646 373.12 385.611 373.12 383.489C373.12 381.367 372.277 379.332 370.777 377.832C369.277 376.332 367.242 375.489 365.12 375.489ZM213.76 375.489H179.92C178.421 375.486 176.951 375.904 175.678 376.697C174.405 377.489 173.38 378.623 172.72 379.969L143.36 440.049H114.96L99.84 418.609C99.0381 417.45 98.5566 416.1 98.4442 414.695C98.3319 413.29 98.5926 411.881 99.2 410.609L141.52 323.329C143.914 318.524 147.601 314.481 152.165 311.655C156.729 308.829 161.991 307.331 167.36 307.329L218.08 308.049C219.288 308.022 220.487 308.269 221.586 308.772C222.685 309.274 223.656 310.019 224.425 310.951C225.195 311.882 225.744 312.976 226.031 314.15C226.317 315.324 226.334 316.548 226.08 317.729L213.76 375.489ZM53.2 254.929C50.3347 251.206 48.3496 246.882 47.3936 242.282C46.4376 237.682 46.5355 232.926 47.68 228.369L63.04 166.209C65.4065 156.483 70.996 147.844 78.8983 141.699C86.8006 135.554 96.5504 132.266 106.56 132.369H146.56C151.452 132.24 156.307 133.235 160.754 135.277C165.201 137.319 169.12 140.353 172.211 144.147C175.302 147.94 177.481 152.392 178.582 157.16C179.682 161.928 179.675 166.885 178.56 171.649L163.36 239.009C161.636 246.988 157.221 254.133 150.857 259.245C144.492 264.357 136.563 267.126 128.4 267.089H78C73.2205 267.043 68.5121 265.927 64.2205 263.823C59.9289 261.718 56.1632 258.679 53.2 254.929ZM60.08 104.449C60.1012 97.6097 62.8329 91.0577 67.6766 86.2291C72.5202 81.4004 79.0806 78.689 85.92 78.689H186C192.832 78.689 199.384 81.403 204.215 86.2339C209.046 91.0649 211.76 97.617 211.76 104.449C211.76 111.281 209.046 117.833 204.215 122.664C199.384 127.495 192.832 130.209 186 130.209H180.8C176.289 125.756 170.941 122.24 165.064 119.864C159.188 117.489 152.898 116.301 146.56 116.369H106.56C94.713 116.437 83.1446 119.968 73.28 126.529C69.3161 124.354 66.0036 121.161 63.6835 117.28C61.3634 113.4 60.1195 108.97 60.08 104.449ZM332.56 147.489H330.56V117.249C330.56 115.127 331.403 113.092 332.903 111.592C334.403 110.092 336.438 109.249 338.56 109.249C340.682 109.249 342.717 110.092 344.217 111.592C345.717 113.092 346.56 115.127 346.56 117.249V150.449C342.153 148.49 337.383 147.481 332.56 147.489ZM219.12 129.569L257.28 158.769C261.34 161.822 266.28 163.477 271.36 163.489H332.56C335.17 163.32 337.786 163.688 340.248 164.57C342.709 165.453 344.964 166.831 346.872 168.619C348.78 170.407 350.3 172.568 351.34 174.967C352.38 177.367 352.916 179.954 352.916 182.569C352.916 185.184 352.38 187.771 351.34 190.171C350.3 192.57 348.78 194.731 346.872 196.519C344.964 198.307 342.709 199.685 340.248 200.568C337.786 201.45 335.17 201.818 332.56 201.649H268C261.524 201.608 255.185 199.781 249.68 196.369L229.92 184.369C228.812 183.691 227.556 183.293 226.259 183.209C224.963 183.126 223.666 183.359 222.48 183.889C221.3 184.405 220.262 185.198 219.454 186.201C218.647 187.203 218.093 188.386 217.84 189.649L207.04 242.849H178.56L193.68 175.489C195.874 165.666 194.951 155.403 191.04 146.129C196.597 145.41 201.95 143.572 206.777 140.726C211.603 137.88 215.802 134.084 219.12 129.569ZM272.56 46.369C272.56 48.4907 271.717 50.5256 270.217 52.0259C268.717 53.5262 266.682 54.369 264.56 54.369H228.88V61.329C228.919 69.2594 226.486 77.005 221.92 83.489C218.266 77.1915 213.028 71.9588 206.727 68.3102C200.426 64.6615 193.281 62.7237 186 62.689H150.4C150.361 62.2365 150.361 61.7815 150.4 61.329V40.049C150.177 29.6525 154.094 19.5934 161.287 12.0844C168.481 4.57544 178.364 0.231792 188.76 0.00901005C199.156 -0.213772 209.216 3.70256 216.725 10.8965C224.234 18.0903 228.577 27.9725 228.8 38.369H264.64C266.748 38.3901 268.762 39.2422 270.245 40.7403C271.728 42.2383 272.56 44.2611 272.56 46.369Z" fill="#F57C00"/>
</svg>
