<svg width="481" height="480" viewBox="0 0 481 480" fill="none" xmlns="http://www.w3.org/2000/svg">
<path d="M478.92 392L398.92 253.44C410.44 230.08 417.16 203.84 417.16 176C417.16 78.88 338.28 0 241.16 0C144.04 0 64.9999 78.88 64.9999 176C64.9999 203.84 71.7199 229.92 83.2399 253.44L3.07994 392C0.0399406 397.28 0.19994 403.84 3.55994 408.8C6.91994 413.76 12.8399 416.64 18.7599 415.84L86.2799 407.68L113 470.24C115.4 475.84 120.68 479.52 126.76 480H127.72C133.48 480 138.76 476.96 141.64 472L212.36 349.44C221.64 351.04 231.24 352 240.84 352C250.44 352 260.04 351.04 269.32 349.44L340.04 472C342.92 476.96 348.2 480 353.96 480H354.92C361 479.68 366.28 475.84 368.68 470.24L395.4 407.68L462.92 415.84C465.867 416.208 468.858 415.743 471.554 414.498C474.25 413.254 476.544 411.279 478.176 408.798C479.808 406.317 480.713 403.428 480.788 400.459C480.862 397.491 480.105 394.56 478.6 392H478.92ZM130.12 428.32L111.24 384.16C109.895 380.963 107.54 378.294 104.535 376.56C101.531 374.827 98.0412 374.124 94.5999 374.56L46.9199 380.32L102.44 284.16C122.44 309.76 149.32 329.6 180.36 341.12L129.96 428.32H130.12ZM97.1599 176C97.1599 96.64 161.8 32 241.16 32C320.52 32 385.16 96.64 385.16 176C385.16 255.36 320.52 320 241.16 320C161.8 320 97.1599 255.36 97.1599 176ZM387.72 374.56C384.279 374.124 380.789 374.827 377.785 376.56C374.78 378.294 372.425 380.963 371.08 384.16L352.2 428.32L301.8 341.12C332.84 329.6 359.72 309.76 379.72 284.16L435.24 380.32L387.56 374.56H387.72Z" fill="#F57C00"/>
<path d="M225 128H289C297.8 128 305 120.8 305 112C305 103.2 297.8 96 289 96H257V80C257 71.2 249.8 64 241 64C232.2 64 225 71.2 225 80V96C198.6 96 177 117.6 177 144C177 170.4 198.6 192 225 192H257C265.8 192 273 199.2 273 208C273 216.8 265.8 224 257 224H193C184.2 224 177 231.2 177 240C177 248.8 184.2 256 193 256H225V272C225 280.8 232.2 288 241 288C249.8 288 257 280.8 257 272V256C283.4 256 305 234.4 305 208C305 181.6 283.4 160 257 160H225C216.2 160 209 152.8 209 144C209 135.2 216.2 128 225 128Z" fill="#F57C00"/>
</svg>
