<svg width="512" height="512" viewBox="0 0 512 512" fill="none" xmlns="http://www.w3.org/2000/svg">
<path d="M405.84 88.9742H375.077V76.1914C375.077 70.0108 370.066 65 363.885 65C357.705 65 352.694 70.0108 352.694 76.1914V88.9742H303.153V76.1914C303.153 70.0108 298.142 65 291.962 65C285.781 65 280.77 70.0108 280.77 76.1914V88.9742H231.23V76.1914C231.23 70.0108 226.219 65 220.038 65C213.858 65 208.847 70.0108 208.847 76.1914V88.9742H159.306V76.1914C159.306 70.0108 154.295 65 148.115 65C141.934 65 136.923 70.0108 136.923 76.1914V88.9742H106.159C83.4643 88.9742 65 107.438 65 130.134V405.84C65 428.536 83.4643 447 106.159 447H405.84C428.535 447 447 428.536 447 405.84V130.134C447 107.438 428.535 88.9742 405.84 88.9742ZM106.159 111.357H136.923V124.141C136.923 130.321 141.934 135.332 148.115 135.332C154.295 135.332 159.306 130.321 159.306 124.141V111.357H208.845V124.141C208.845 130.321 213.856 135.332 220.037 135.332C226.217 135.332 231.228 130.321 231.228 124.141V111.357H280.769V124.141C280.769 130.321 285.78 135.332 291.96 135.332C298.141 135.332 303.152 130.321 303.152 124.141V111.357H352.692V124.141C352.692 130.321 357.703 135.332 363.884 135.332C370.064 135.332 375.075 130.321 375.075 124.141V111.357H405.838C416.193 111.357 424.617 119.78 424.617 130.134V160.898H87.3828V130.134C87.3828 119.78 95.8062 111.357 106.159 111.357ZM405.84 424.617H106.159C95.8062 424.617 87.3828 416.194 87.3828 405.84V183.28H424.617V405.84C424.617 416.194 416.193 424.617 405.84 424.617Z" fill="#F57C00"/>
<path d="M178.082 220.834H130.133C123.953 220.834 118.942 225.845 118.942 232.026V279.974C118.942 286.155 123.953 291.166 130.133 291.166H178.083C184.264 291.166 189.275 286.155 189.275 279.974V232.026C189.274 225.845 184.264 220.834 178.082 220.834ZM166.891 268.783H141.324V243.217H166.891V268.783ZM381.865 220.834H333.917C327.736 220.834 322.725 225.845 322.725 232.026V279.974C322.725 286.155 327.736 291.166 333.917 291.166H381.865C388.046 291.166 393.057 286.155 393.057 279.974V232.026C393.057 225.845 388.046 220.834 381.865 220.834ZM370.674 268.783H345.108V243.217H370.674V268.783ZM178.082 316.732H130.133C123.953 316.732 118.942 321.743 118.942 327.923V375.872C118.942 382.053 123.953 387.063 130.133 387.063H178.083C184.264 387.063 189.275 382.053 189.275 375.872V327.923C189.274 321.743 184.264 316.732 178.082 316.732ZM166.891 364.68H141.324V339.115H166.891V364.68ZM381.865 316.732H333.917C327.736 316.732 322.725 321.743 322.725 327.923V375.872C322.725 382.053 327.736 387.063 333.917 387.063H381.865C388.046 387.063 393.057 382.053 393.057 375.872V327.923C393.057 321.743 388.046 316.732 381.865 316.732ZM370.674 364.68H345.108V339.115H370.674V364.68ZM279.974 316.732H232.024C225.844 316.732 220.833 321.743 220.833 327.923V375.872C220.833 382.053 225.844 387.063 232.024 387.063H279.974C286.155 387.063 291.166 382.053 291.166 375.872V327.923C291.166 321.743 286.155 316.732 279.974 316.732ZM268.783 364.68H243.216V339.115H268.783V364.68ZM273.515 231.135L247.525 257.126L238.485 248.086C234.116 243.716 227.029 243.716 222.659 248.086C218.288 252.457 218.288 259.542 222.659 263.913L239.612 280.867C241.711 282.965 244.557 284.144 247.525 284.144C250.494 284.144 253.34 282.965 255.439 280.867L289.342 246.962C293.712 242.591 293.712 235.506 289.342 231.135C284.971 226.764 277.885 226.764 273.515 231.135Z" fill="#F57C00"/>
</svg>
