<svg width="440" height="512" viewBox="0 0 440 512" fill="none" xmlns="http://www.w3.org/2000/svg">
<path d="M255.648 352.864L251.211 335.018C251.113 334.628 242.522 300.697 219.765 244.434C196.567 303.188 187.827 334.959 187.727 335.328L183.006 352.682L161.146 342.212C161.975 361.658 169.656 392.014 188.275 393.115C188.555 388.735 190.338 382.263 198.295 368.167C202.539 360.648 206.728 354.164 206.904 353.891L219.51 334.408L232.115 353.891C232.292 354.164 236.48 360.648 240.724 368.167C248.655 382.218 250.453 388.693 250.742 393.073C270.858 391.746 275.898 358.704 277.872 342.212L255.648 352.864Z" fill="#F57C00"/>
<path d="M368.455 228.347C361.32 187.126 347.258 158.212 346.662 157.001L338.754 140.914L324.289 151.547C324.205 151.609 318.45 155.844 309.218 162.832C279.009 97.932 234.386 24.436 232.335 21.066L219.51 0L206.686 21.066C204.635 24.436 160.012 97.933 129.803 162.832C120.571 155.844 114.815 151.609 114.732 151.547L100.267 140.914L92.359 157.002C91.764 158.212 77.701 187.126 70.567 228.347C61.004 283.594 68.588 334.909 92.499 376.742C96.1696 383.16 100.484 389.187 105.375 394.731C116.493 390.753 128.732 388.545 141.58 388.545C141.994 388.545 142.402 388.568 142.815 388.572C133.571 367.493 129.33 343.653 130.221 317.477L131 294.583L163.965 310.382C170.393 290.341 183.31 253.004 205.662 199.515L219.165 167.201L233.25 199.268C255.932 250.908 268.939 289.405 275.321 310.254L308.02 294.581L308.799 317.476C309.69 343.65 305.451 367.488 296.209 388.563C296.702 388.556 297.195 388.544 297.689 388.544C310.458 388.544 322.627 390.723 333.691 394.656C338.563 389.134 342.862 383.132 346.523 376.742C370.434 334.908 378.018 283.594 368.455 228.347ZM264.633 433.25C252.72 423.705 236.72 418.448 219.58 418.448C202.44 418.448 186.441 423.704 174.528 433.25C163.573 442.027 157.54 453.383 157.54 465.224C157.54 477.065 163.573 488.421 174.528 497.198C186.441 506.744 202.441 512 219.58 512C236.719 512 252.72 506.744 264.633 497.198C275.587 488.421 281.62 477.065 281.62 465.224C281.62 453.383 275.587 442.027 264.633 433.25ZM342.742 433.25C330.829 423.705 314.829 418.448 297.689 418.448C295.991 418.448 294.301 418.518 292.618 418.621C304.529 431.546 311.621 447.707 311.621 465.224C311.621 482.739 304.53 498.898 292.621 511.823C294.307 511.928 295.996 512 297.689 512C314.828 512 330.828 506.744 342.742 497.198C353.696 488.42 359.729 477.065 359.729 465.224C359.729 453.383 353.696 442.028 342.742 433.25ZM127.54 465.224C127.54 447.705 134.634 431.544 146.546 418.618C144.893 418.511 143.237 418.454 141.58 418.448C124.441 418.448 108.441 423.704 96.528 433.25C85.573 442.028 79.54 453.383 79.54 465.224C79.54 477.065 85.573 488.42 96.528 497.198C108.441 506.744 124.441 512 141.58 512C143.237 511.994 144.894 511.938 146.548 511.832C134.635 498.906 127.54 482.744 127.54 465.224ZM49.54 465.224C49.54 447.722 56.62 431.574 68.513 418.654C66.6842 418.524 64.8515 418.455 63.018 418.448C45.879 418.448 29.879 423.704 17.966 433.25C7.01103 442.028 0.978027 453.383 0.978027 465.224C0.978027 477.065 7.01103 488.42 17.966 497.198C29.879 506.744 45.879 512 63.018 512C64.865 512 66.702 511.931 68.527 511.809C56.626 498.887 49.54 482.733 49.54 465.224ZM422.034 433.25C410.121 423.704 394.121 418.448 376.982 418.448C375.141 418.448 373.31 418.532 371.487 418.654C383.38 431.574 390.46 447.722 390.46 465.224C390.46 482.733 383.374 498.887 371.473 511.809C373.298 511.931 375.135 512 376.982 512C394.121 512 410.121 506.744 422.034 497.198C432.989 488.42 439.022 477.065 439.022 465.224C439.022 453.383 432.989 442.028 422.034 433.25Z" fill="#F57C00"/>
</svg>
