<svg width="384" height="492" viewBox="0 0 384 492" fill="none" xmlns="http://www.w3.org/2000/svg">
<path d="M144.469 404.709C130.885 400.844 118.796 392.943 109.803 382.053C108.121 380.262 106.378 378.53 104.576 376.859C102.837 376.485 99.5414 376.133 97.2481 375.888C83.3312 375.412 69.886 370.725 58.6881 362.448C52.7736 357.546 47.9364 351.474 44.4801 344.613L2.88008 416.667C0.870695 420.147 -0.114561 424.125 0.0377994 428.141C0.19016 432.157 1.47394 436.049 3.74127 439.367C6.00859 442.686 9.16722 445.296 12.8533 446.898C16.5394 448.5 20.603 449.028 24.5761 448.421L61.7067 442.768L75.3921 477.776C76.8406 481.527 79.3272 484.788 82.5611 487.178C85.795 489.567 89.6425 490.986 93.6534 491.269C94.2081 491.312 94.7592 491.333 95.3068 491.333C99.0477 491.343 102.724 490.361 105.962 488.487C109.2 486.614 111.883 483.915 113.739 480.667L156.885 405.915C156.565 405.925 156.267 405.989 155.947 405.989C152.085 405.997 148.235 405.567 144.469 404.709ZM339.52 344.603C336.065 351.47 331.228 357.549 325.312 362.459C314.113 370.734 300.669 375.42 286.752 375.899C284.437 376.144 281.131 376.507 279.403 376.859C278.069 378.032 275.776 380.411 274.176 382.085C265.204 392.941 253.156 400.824 239.616 404.699C235.81 405.572 231.916 406.009 228.011 406C227.701 406 227.424 405.936 227.115 405.936L270.261 480.667C272.116 483.914 274.798 486.611 278.033 488.485C281.269 490.358 284.944 491.341 288.683 491.333C289.237 491.333 289.792 491.312 290.347 491.269C294.359 490.987 298.208 489.568 301.444 487.179C304.68 484.789 307.168 481.528 308.619 477.776L322.293 442.768L359.413 448.421C363.387 449.03 367.452 448.504 371.14 446.903C374.828 445.302 377.988 442.692 380.257 439.373C382.526 436.054 383.811 432.162 383.963 428.144C384.116 424.127 383.13 420.148 381.12 416.667L339.52 344.603ZM192 86C170.903 86 150.281 92.2559 132.739 103.977C115.198 115.697 101.526 132.356 93.4529 151.847C85.3796 171.338 83.2672 192.785 87.383 213.476C91.4987 234.168 101.658 253.174 116.575 268.091C131.493 283.009 150.499 293.168 171.19 297.284C191.882 301.4 213.329 299.287 232.82 291.214C252.31 283.14 268.97 269.469 280.69 251.927C292.411 234.386 298.667 213.763 298.667 192.667C298.633 164.387 287.384 137.276 267.387 117.279C247.391 97.2828 220.279 86.0339 192 86ZM243.541 166.587L200.875 230.587C199.999 231.898 198.844 232.999 197.492 233.811C196.14 234.623 194.625 235.124 193.056 235.28C192.705 235.315 192.353 235.333 192 235.333C189.171 235.333 186.459 234.209 184.459 232.208L152.459 200.208C150.516 198.196 149.441 195.502 149.465 192.705C149.489 189.908 150.611 187.233 152.589 185.255C154.566 183.278 157.242 182.156 160.038 182.131C162.835 182.107 165.53 183.182 167.541 185.125L190.347 207.931L225.792 154.747C226.57 153.581 227.569 152.58 228.733 151.801C229.897 151.022 231.204 150.48 232.577 150.205C233.951 149.931 235.366 149.93 236.74 150.202C238.114 150.474 239.421 151.015 240.587 151.792C241.752 152.569 242.753 153.569 243.532 154.733C244.312 155.897 244.854 157.204 245.128 158.577C245.403 159.951 245.404 161.366 245.131 162.74C244.859 164.114 244.319 165.421 243.541 166.587Z" fill="#F57C00"/>
<path d="M234.773 383.909C244.243 380.847 252.602 375.063 258.805 367.28C261.986 363.522 265.724 360.274 269.888 357.648C274.55 355.906 279.455 354.905 284.427 354.683C294.219 354.526 303.747 351.483 311.819 345.936C318.911 339.052 323.889 330.285 326.165 320.667C327.477 315.755 329.523 311.069 332.235 306.768C335.674 303.177 339.646 300.136 344.011 297.755C352.819 293.263 360.131 286.307 365.056 277.733C368.49 268.521 369.248 258.526 367.243 248.901C366.324 243.782 366.187 238.553 366.837 233.392C368.386 228.693 370.638 224.255 373.515 220.229C379.572 212.233 383.211 202.667 384 192.667C383.206 182.675 379.571 173.119 373.525 165.125C370.644 161.101 368.389 156.663 366.837 151.963C366.186 146.802 366.323 141.573 367.243 136.453C369.246 126.829 368.492 116.836 365.067 107.621C360.14 99.0559 352.832 92.1046 344.032 87.6107C339.659 85.2269 335.68 82.1832 332.235 78.5867C329.523 74.2783 327.477 69.5855 326.165 64.6667C323.896 55.0427 318.917 46.2702 311.819 39.3867C303.75 33.8416 294.226 30.7991 284.437 30.64C279.467 30.4242 274.561 29.4308 269.899 27.696C265.734 25.0613 261.994 21.8101 258.805 18.0533C252.601 10.269 244.243 4.48204 234.773 1.41332C225.188 0.0552114 215.414 1.54255 206.667 5.69066C202.01 7.73658 197.061 9.03951 192 9.55199C186.943 9.0439 181.998 7.7445 177.344 5.70132C168.595 1.54502 158.815 0.0609018 149.227 1.43466C139.758 4.49411 131.4 10.2741 125.195 18.0533C122.014 21.8111 118.276 25.0595 114.112 27.6853C109.451 29.4274 104.545 30.428 99.5733 30.6507C89.781 30.8077 80.2526 33.8502 72.1813 39.3973C65.0889 46.2812 60.1112 55.0485 57.8347 64.6667C56.5229 69.5787 54.4767 74.2645 51.7653 78.5653C48.3263 82.1568 44.3543 85.1969 39.9893 87.5787C31.1813 92.0707 23.8695 99.0268 18.944 107.6C15.5103 116.812 14.7523 126.807 16.7573 136.432C17.6762 141.552 17.8128 146.781 17.1627 151.941C15.6138 156.641 13.3625 161.078 10.4853 165.104C4.42818 173.101 0.789453 182.666 0 192.667C0.794439 202.658 4.4288 212.214 10.4747 220.208C13.3561 224.233 15.6111 228.67 17.1627 233.371C17.8138 238.531 17.6772 243.761 16.7573 248.88C14.7541 258.504 15.5084 268.498 18.9333 277.712C23.8605 286.277 31.1676 293.229 39.968 297.723C44.3416 300.11 48.3209 303.157 51.7653 306.757C54.475 311.059 56.5211 315.745 57.8347 320.656C60.1043 330.28 65.0828 339.052 72.1813 345.936C80.2496 351.481 89.774 354.524 99.5627 354.683C104.533 354.902 109.439 355.899 114.101 357.637C118.265 360.269 122.005 363.516 125.195 367.269C131.398 375.058 139.756 380.848 149.227 383.92C158.812 385.274 168.584 383.787 177.333 379.643C181.99 377.597 186.939 376.294 192 375.781C197.057 376.289 202.002 377.589 206.656 379.632C213.425 382.547 220.653 384.251 228.011 384.667C230.287 384.675 232.556 384.421 234.773 383.909ZM192 320.667C166.684 320.667 141.936 313.16 120.887 299.095C99.8375 285.03 83.4314 265.039 73.7434 241.65C64.0554 218.261 61.5206 192.525 66.4595 167.695C71.3984 142.866 83.5892 120.058 101.49 102.157C119.391 84.2559 142.199 72.065 167.028 67.1261C191.858 62.1872 217.595 64.7221 240.983 74.4101C264.372 84.0981 284.363 100.504 298.428 121.554C312.493 142.603 320 167.351 320 192.667C319.963 226.603 306.466 259.139 282.469 283.136C258.472 307.133 225.936 320.63 192 320.667Z" fill="#F57C00"/>
</svg>
