<svg width="358" height="462" viewBox="0 0 358 462" fill="none" xmlns="http://www.w3.org/2000/svg">
<path d="M354.278 377.335C343.966 346.645 302.868 327.435 273.566 314.558C262.087 309.531 230.307 301.001 226.488 286.547C225.121 281.34 225.305 276.43 226.427 271.724C224.644 272.075 222.832 272.255 221.015 272.262H201.922C194.597 272.254 187.573 269.34 182.394 264.159C177.214 258.979 174.301 251.955 174.295 244.629C174.295 229.408 186.685 217.033 201.922 217.033H221.015C227.323 217.033 233.303 219.168 238.126 222.977C244.988 222.072 251.762 220.589 258.375 218.543C266.726 201.048 273.239 180.128 274.698 162.121C280.929 85.0749 233.697 39.9984 165.975 47.791C116.736 53.4589 87.3212 90.1744 84.1417 137.442C80.9264 185.621 98.79 221.205 117.765 247.307C126.075 258.72 134.804 266.057 133.463 279.809C131.906 296.07 114.519 300.601 102.082 305.598C87.3468 311.517 71.4748 320.498 63.9792 324.65C38.159 338.909 9.8198 356.082 3.45052 379.572C-10.6551 431.632 36.9814 447.402 76.3081 454.683C110.059 460.908 148.116 461.4 179.42 461.4C236.042 461.4 337.858 459.132 354.278 416.569C358.947 404.491 356.946 385.245 354.278 377.335Z" fill="#F57C00"/>
<path d="M233.098 236.852C231.791 234.839 230.002 233.185 227.894 232.038C225.786 230.891 223.425 230.288 221.025 230.283H201.932C200.011 230.232 198.1 230.566 196.31 231.266C194.52 231.965 192.889 233.017 191.512 234.357C190.135 235.698 189.041 237.301 188.294 239.071C187.546 240.841 187.161 242.744 187.161 244.665C187.161 246.587 187.546 248.489 188.294 250.26C189.041 252.03 190.135 253.633 191.512 254.973C192.889 256.314 194.52 257.365 196.31 258.065C198.1 258.765 200.011 259.099 201.932 259.047H221.025C223.651 259.045 226.226 258.318 228.466 256.946C230.706 255.573 232.523 253.609 233.717 251.27C260.336 249.176 283.489 241.045 299.74 229.039C303.472 231.445 307.886 232.853 312.647 232.853H313.845C317 232.854 320.123 232.233 323.037 231.025C325.952 229.818 328.599 228.047 330.828 225.816C333.058 223.584 334.825 220.935 336.03 218.019C337.234 215.104 337.852 211.98 337.848 208.825V160.861C337.849 156.331 336.564 151.893 334.142 148.065C331.72 144.236 328.261 141.174 324.167 139.234C320.645 62.2141 256.885 0.599976 179 0.599976C101.114 0.599976 37.3448 62.2141 33.8376 139.234C29.7407 141.171 26.2785 144.232 23.8546 148.061C21.4307 151.89 20.1448 156.329 20.1467 160.861V208.825C20.1427 211.978 20.7599 215.101 21.9631 218.015C23.1664 220.929 24.932 223.577 27.1591 225.808C29.3863 228.04 32.0313 229.811 34.943 231.019C37.8548 232.228 40.9761 232.851 44.1288 232.853H45.3423C48.4961 232.853 51.6188 232.231 54.532 231.022C57.4452 229.814 60.0917 228.044 62.3204 225.812C64.549 223.581 66.316 220.932 67.5205 218.017C68.7249 215.103 69.3431 211.979 69.3397 208.825V160.861C69.3373 156.394 68.0856 152.017 65.726 148.224C63.3663 144.431 59.9928 141.374 55.9867 139.398C59.412 74.5021 113.264 22.7747 179 22.7747C244.71 22.7747 298.588 74.5021 301.998 139.398C297.996 141.378 294.626 144.436 292.27 148.228C289.913 152.021 288.663 156.396 288.66 160.861V208.825C288.66 212.01 289.28 214.974 290.37 217.744C276.382 227.754 256.02 234.886 233.098 236.852Z" fill="#F57C00"/>
</svg>
