<svg width="401" height="384" viewBox="0 0 401 384" fill="none" xmlns="http://www.w3.org/2000/svg">
<path d="M233 8C233 3.6 236.6 0 241 0H321C325.4 0 329 3.6 329 8C329 12.4 325.4 16 321 16H313V74.4L249 43.92V16H241C236.6 16 233 12.4 233 8ZM393 368V344C393 339.6 389.4 336 385 336H377V315.28L379.32 312.96C387.96 304.32 393 292.24 393 280C393 267.76 388.04 255.68 379.32 247.04L374.6 242.32C373.86 241.578 372.981 240.99 372.013 240.589C371.045 240.187 370.008 239.98 368.96 239.98C367.912 239.98 366.875 240.187 365.907 240.589C364.939 240.99 364.06 241.578 363.32 242.32L358.6 247.04C349.96 255.68 344.92 267.76 344.92 280C344.92 292.24 349.88 304.32 358.6 312.96L360.92 315.28V336H352.92C348.52 336 344.92 339.6 344.92 344V368H328.92V320H288.92C284.52 320 280.92 316.4 280.92 312V256C280.92 251.6 284.52 248 288.92 248H328.92V199.2L201.56 138.56L72.92 199.2V248H112.92C117.32 248 120.92 251.6 120.92 256V312C120.92 316.4 117.32 320 112.92 320H72.92V368H56.92V344C56.92 339.6 53.32 336 48.92 336H40.92V315.28L43.24 312.96C51.88 304.32 56.92 292.24 56.92 280C56.92 267.76 51.96 255.68 43.24 247.04L38.52 242.32C37.7799 241.578 36.9008 240.99 35.933 240.589C34.9652 240.187 33.9277 239.98 32.88 239.98C31.8322 239.98 30.7948 240.187 29.827 240.589C28.8592 240.99 27.9801 241.578 27.24 242.32L22.52 247.04C13.88 255.68 8.84 267.76 8.84 280C8.84 292.24 13.8 304.32 22.52 312.96L24.84 315.28V336H16.84C12.44 336 8.84 339.6 8.84 344V368C4.44 368 0.839996 371.6 0.839996 376C0.839996 380.4 4.44 384 8.84 384H144.84V296C144.84 265.12 169.96 240 200.84 240C231.72 240 256.84 265.12 256.84 296V384H392.84C397.24 384 400.84 380.4 400.84 376C400.84 371.6 397.24 368 392.84 368H393ZM105 264H73V304H105V264ZM329 304V264H297V304H329ZM201 256C178.92 256 161 273.92 161 296V384H241V296C241 273.92 223.08 256 201 256ZM57 80C67.4 80 76.2 73.28 79.56 64H89V92.32L45.56 112.8C42.76 114.16 41 116.96 41 120V184C41 186.72 42.36 189.28 44.68 190.72C45.96 191.52 47.48 192 49 192C50.2 192 51.32 191.76 52.44 191.2L201.72 120.8L349.64 191.2C352.12 192.4 355 192.24 357.32 190.72C359.64 189.28 361.08 186.72 361.08 183.92V119.92C361.08 116.8 359.32 114 356.52 112.72L205.16 40.72C204.086 40.2065 202.911 39.94 201.72 39.94C200.529 39.94 199.354 40.2065 198.28 40.72L105 84.72V56C105 51.6 101.4 48 97 48H79.56C77.9196 43.3251 74.8681 39.2749 70.8269 36.4089C66.7857 33.5428 61.9543 32.0022 57 32C43.8 32 33 42.8 33 56C33 69.2 43.8 80 57 80Z" fill="#F57C00"/>
</svg>
