<svg width="496" height="472" viewBox="0 0 496 472" fill="none" xmlns="http://www.w3.org/2000/svg">
<path d="M430.336 167.216C419.971 157.432 406.253 151.987 392 152C375.024 152 359.864 159.656 349.584 171.624C341.728 111.056 314.368 55.048 270.464 11.144L268.584 9.26398C352.208 18.632 419.104 84.16 430.336 167.216ZM274.96 305.088C278.112 300.136 280 294.296 280 288C280 270.352 265.648 256 248 256C230.352 256 216 270.352 216 288C216 294.296 217.888 300.136 221.04 305.088C217.606 305.782 214.244 306.797 211 308.12L160.16 206.424C161.008 185.112 178.48 168 200 168C222.056 168 240 185.944 240 208C240 210.122 240.843 212.157 242.343 213.657C243.843 215.157 245.878 216 248 216C250.122 216 252.157 215.157 253.657 213.657C255.157 212.157 256 210.122 256 208C256 185.944 273.944 168 296 168C317.52 168 334.992 185.112 335.84 206.424L284.992 308.12C281.751 306.796 278.392 305.781 274.96 305.088ZM232 288C232 279.176 239.176 272 248 272C256.824 272 264 279.176 264 288C264 296.824 256.824 304 248 304C239.176 304 232 296.824 232 288ZM259.152 22.464C298.608 61.92 323.896 111.744 332.584 165.784C322.459 156.914 309.461 152.017 296 152C288.539 152.004 281.154 153.506 274.284 156.415C267.413 159.324 261.196 163.581 256 168.936V19.312L259.152 22.464ZM240 19.312V168.936C234.804 163.581 228.587 159.324 221.716 156.415C214.846 153.506 207.461 152.004 200 152C186 152 173.248 157.248 163.416 165.776C172.112 111.736 197.392 61.912 236.848 22.456L240 19.312ZM227.416 9.27198L225.536 11.152C181.632 55.056 154.272 111.064 146.416 171.632C136.136 159.656 120.976 152 104 152C89.7465 151.987 76.029 157.432 65.664 167.216C76.896 84.16 143.792 18.632 227.416 9.27198ZM64.304 204.992C65.872 184.36 82.976 168 104 168C126.056 168 144 185.944 144 208C144 209.288 144.376 210.464 144.92 211.544L144.848 211.584L197.176 316.232C193.176 319.424 189.632 323.16 186.632 327.312L64.304 204.992ZM304 376C304 380.416 300.408 384 296 384H288V352H272V464C272 468.416 268.408 472 264 472H256V424H240V472H232C227.592 472 224 468.416 224 464V352H208V384H200C195.592 384 192 380.416 192 376V360C192 337.944 209.944 320 232 320H264C286.056 320 304 337.944 304 360V376ZM298.832 316.232L351.16 211.584L351.088 211.544C351.665 210.45 351.977 209.236 352 208C352 185.944 369.944 168 392 168C413.024 168 430.128 184.36 431.696 204.992L309.376 327.312C306.38 323.158 302.833 319.43 298.832 316.232ZM448 360H464V440H448V360ZM480 328H496V424H480V328ZM480 296H496V312H480V296ZM416 328H432V424H416V328ZM416 296H432V312H416V296ZM32 296H48V376H32V296ZM64 312H80V408H64V312ZM64 424H80V440H64V424ZM0 312H16V408H0V312ZM0 424H16V440H0V424Z" fill="#F57C00"/>
<path d="M40 64C57.6731 64 72 49.6731 72 32C72 14.3269 57.6731 0 40 0C22.3269 0 8 14.3269 8 32C8 49.6731 22.3269 64 40 64Z" fill="#F57C00"/>
<path d="M456 96C473.673 96 488 81.6731 488 64C488 46.3269 473.673 32 456 32C438.327 32 424 46.3269 424 64C424 81.6731 438.327 96 456 96Z" fill="#F57C00"/>
</svg>
