<svg width="468" height="480" viewBox="0 0 468 480" fill="none" xmlns="http://www.w3.org/2000/svg">
<path fill-rule="evenodd" clip-rule="evenodd" d="M195.007 1.81999L208.628 37.695C208.818 38.215 209.159 38.6665 209.607 38.9919C210.055 39.3173 210.589 39.5018 211.143 39.522L249.471 41.39C252.078 41.517 253.145 44.801 251.111 46.436L221.201 70.476C220.765 70.8176 220.441 71.2811 220.27 71.8076C220.099 72.334 220.088 72.8995 220.24 73.432L230.308 110.461C230.993 112.979 228.2 115.009 226.016 113.579L193.909 92.562C193.449 92.253 192.908 92.0879 192.355 92.0879C191.801 92.0879 191.26 92.253 190.801 92.562L158.695 113.579C156.511 115.009 153.718 112.979 154.403 110.461L164.47 73.431C164.622 72.8986 164.611 72.3332 164.44 71.8067C164.269 71.2802 163.945 70.8166 163.51 70.475L133.6 46.435C131.566 44.8 132.633 41.516 135.24 41.389L173.568 39.521C174.121 39.5007 174.656 39.3161 175.104 38.9907C175.552 38.6653 175.892 38.2139 176.083 37.694L189.704 1.81899C190.623 -0.606008 194.087 -0.606009 195.007 1.81999ZM380.322 305.654C428.466 305.654 467.495 344.683 467.495 392.827C467.495 440.971 428.466 480 380.322 480C332.178 480 293.149 440.971 293.149 392.827C293.149 344.683 332.178 305.654 380.322 305.654ZM368.872 400.516L349.394 381.038C344.346 375.99 336.157 375.99 331.108 381.038C326.06 386.086 326.06 394.275 331.108 399.323L359.757 427.972C364.805 433.02 372.994 433.02 378.042 427.972C395.31 410.704 412.383 393.241 429.571 375.893C434.583 370.835 434.567 362.672 429.515 357.648C424.462 352.623 416.277 352.637 411.259 357.705L368.872 400.516ZM48.8908 433.21L285.355 433.209C280.074 420.806 277.15 407.158 277.15 392.827C277.15 371.031 283.915 350.818 295.451 334.161C268.058 309.738 231.944 294.892 192.357 294.892C116.154 294.892 52.8008 349.887 39.8068 422.351C39.5619 423.681 39.6133 425.048 39.9573 426.355C40.3013 427.663 40.9294 428.878 41.7968 429.915C42.6643 430.952 43.7498 431.785 44.976 432.355C46.2021 432.924 47.5388 433.216 48.8908 433.21ZM192.357 128.159C235.637 128.159 270.723 163.245 270.723 206.525C270.723 249.805 235.637 284.891 192.357 284.891C149.077 284.891 113.991 249.805 113.991 206.525C113.99 163.245 149.076 128.159 192.357 128.159ZM327.036 52.6C326.115 50.174 322.651 50.174 321.73 52.6L308.109 88.475C307.919 88.995 307.578 89.4466 307.13 89.772C306.682 90.0975 306.147 90.282 305.594 90.302L267.266 92.17C264.659 92.297 263.592 95.581 265.626 97.216L295.536 121.256C295.971 121.598 296.295 122.061 296.466 122.588C296.637 123.114 296.648 123.68 296.496 124.212L286.429 161.242C285.744 163.761 288.537 165.79 290.721 164.36L322.827 143.343C323.286 143.034 323.827 142.869 324.381 142.869C324.934 142.869 325.475 143.034 325.935 143.343L358.042 164.36C360.226 165.79 363.019 163.76 362.334 161.242L352.266 124.213C352.114 123.681 352.124 123.115 352.295 122.589C352.466 122.062 352.79 121.599 353.226 121.257L383.136 97.217C385.17 95.582 384.103 92.298 381.496 92.171L343.168 90.303C342.614 90.2827 342.08 90.0981 341.632 89.7727C341.184 89.4473 340.843 88.9959 340.653 88.476L327.036 52.6ZM62.9778 52.6C62.0568 50.174 58.5928 50.174 57.6728 52.6L44.0518 88.475C43.8617 88.995 43.5209 89.4466 43.0729 89.772C42.6249 90.0975 42.0901 90.282 41.5368 90.302L3.20877 92.17C0.601767 92.297 -0.465232 95.581 1.56877 97.216L31.4788 121.256C31.9144 121.598 32.2385 122.061 32.4095 122.588C32.5805 123.114 32.5907 123.68 32.4388 124.212L22.3718 161.242C21.6868 163.761 24.4798 165.79 26.6638 164.36L58.7698 143.343C59.2291 143.034 59.7702 142.869 60.3238 142.869C60.8774 142.869 61.4184 143.034 61.8778 143.343L93.9848 164.36C96.1688 165.79 98.9618 163.76 98.2768 161.242L88.2098 124.213C88.0579 123.681 88.0681 123.115 88.2391 122.589C88.4101 122.062 88.7341 121.599 89.1698 121.257L119.08 97.217C121.114 95.582 120.047 92.298 117.44 92.171L79.1118 90.303C78.5585 90.2827 78.0238 90.0981 77.5759 89.7727C77.128 89.4473 76.7871 88.9959 76.5968 88.476L62.9778 52.6Z" fill="#F57C00"/>
</svg>
