<svg width="498" height="498" viewBox="0 0 498 498" fill="none" xmlns="http://www.w3.org/2000/svg">
<path d="M406.547 93.5382C380.926 93.5382 360.156 72.7685 360.156 47.1479C360.156 21.5272 380.926 0.757568 406.547 0.757568C432.167 0.757568 452.937 21.5272 452.937 47.1479C452.937 72.7685 432.167 93.5382 406.547 93.5382Z" fill="#F57C00"/>
<path d="M212.452 408.806C295.676 370.98 288.981 300.045 289.718 295.623C277.461 258.697 283.667 200.748 294.683 159.4C279.245 166.537 268.229 176.079 261.868 188.025C245.29 219.521 197.108 194.371 214.081 162.658C226.338 139.463 247.439 120.845 275.133 108.821C346.557 77.4877 399.449 96.005 397.393 139.075C397.393 172.208 424.459 208.133 475.512 218.59C490.825 221.755 499.622 236.596 496.69 250.474C493.688 265.128 479.615 274.437 464.729 271.73C428.733 264.36 399.022 248.069 377.766 224.098C376.525 247.604 378.852 267.851 379.938 277.47C380.706 285.973 425.25 363.005 428.346 465.359C428.982 482.441 414.778 496.443 398.169 497.242C397.936 497.242 397.936 497.165 397.47 497.242C396.679 496.878 367.293 493.635 366.518 467.221C365.199 424.244 355.036 384.835 343.943 354.115C319.352 428.355 245.655 461.945 236.346 465.902C221.179 472.403 202.631 465.39 196.006 449.301C189.412 433.553 196.782 415.4 212.452 408.806ZM130.532 430.682C163.479 447.152 151.92 497.242 114.784 497.242C89.0602 497.242 71.7375 469.982 83.3661 446.353C92.0546 429.053 113.233 421.994 130.532 430.682Z" fill="#F57C00"/>
<path d="M175.534 275.159L210.047 207.264C214.004 210.678 218.581 213.315 223.468 215.177L189.389 282.133L193.679 284.297C201.98 288.486 205.315 298.648 201.204 306.949L144.186 420.83C118.57 402.802 83.4515 411.676 69.4801 439.371C68.3165 441.698 67.3856 444.103 66.6098 446.508L46.828 436.578L141.16 257.844L175.534 275.159ZM74.6777 253.577C77.7775 247.418 83.1951 242.741 89.7405 240.574C96.286 238.407 103.424 238.926 109.587 242.018L127.266 250.908L33.0118 429.612L19.1335 422.615C12.9846 419.504 8.31254 414.091 6.13343 407.554C3.95433 401.017 4.44445 393.883 7.49713 387.705L74.6777 253.577ZM108.113 101.606H32.7868C15.0995 101.606 0.748018 87.2545 0.748018 69.5672C0.748018 51.4611 15.8443 37.1794 33.2523 37.606C33.9088 27.6062 38.3481 18.2314 45.6681 11.387C52.988 4.54255 62.6394 0.741942 72.6608 0.757555C93.614 0.757555 110.913 17.0485 112.069 37.8388C127.724 39.6463 140.152 53.2298 140.152 69.5672C140.152 87.2545 125.8 101.606 108.113 101.606Z" fill="#F57C00"/>
</svg>
