<svg width="465" height="465" viewBox="0 0 465 465" fill="none" xmlns="http://www.w3.org/2000/svg">
<path d="M435 50C435 50 445 40 445 15C445 15 440 0 430 0C420 0 395 35 385 35C375 35 365 40 355 50C345 60 335 70 325 70C315 70 295 85 285 70C285 70 285 95 310 100C310 100 295 115 255 135C255 135 220 130 195 145H110C110 145 30 140 0 250V340C0 340 30 335 40 305V295C40 295 40 285 45 285C50 285 60 330 10 370V400C10 400 5 440 40 465H65C65 465 75 465 75 455C75 445 60 430 45 425C45 425 35 415 45 385C45 385 55 355 75 340C95 325 105 300 105 300V330C105 330 100 360 85 370C85 370 80 420 120 450H160C160 450 160 425 140 425H130C130 425 120 405 120 385C120 365 150 285 175 270C175 270 200 280 225 280C250 280 270 275 270 275V340C270 340 275 360 275 370V430C275 430 275 445 295 455H310C310 455 320 455 320 445C320 445 320 435 305 430C305 430 295 420 295 410C295 400 295 340 315 325C315 325 320 390 330 420C330 420 330 440 350 445H375C375 445 375 425 360 420C360 420 350 415 350 400V340C350 340 390 275 390 215C390 215 415 185 425 135V105C425 105 425 90 440 80C455 70 465 70 465 55C465 55 465 45 450 50C435 55 435 50 435 50Z" fill="#F57C00"/>
</svg>
