<svg width="364" height="512" viewBox="0 0 364 512" fill="none" xmlns="http://www.w3.org/2000/svg">
<path fill-rule="evenodd" clip-rule="evenodd" d="M349.961 397.465C328.066 397.465 316.672 407.69 307.51 415.904C299.824 422.793 294.766 427.342 283.342 427.342C271.946 427.342 266.869 422.793 259.186 415.904C257.724 414.586 256.245 413.288 254.75 412.008C265.828 407.856 276.105 403.02 283.949 397.465C316.527 374.408 345.828 330.197 345.828 330.197L201.455 383.363C205.295 375.136 203.119 365.05 195.652 359.236L142.281 317.644C138.785 314.919 134.478 313.439 130.045 313.441H81.752L71.647 295.107H90.774C94.497 295.107 98.151 294.064 101.309 292.089L145.069 264.794C153.231 259.702 156.419 249.669 153.2 240.987L209.483 358.596L363.663 303.764C363.663 303.764 328.343 62.641 37.911 0L151.751 237.949C151.638 237.748 151.55 237.547 151.419 237.349C145.587 228.017 133.31 225.169 123.974 230.992L85.074 255.263H37.912C34.4467 255.262 31.0413 256.166 28.0326 257.886C25.024 259.605 22.5164 262.08 20.758 265.066C18.9934 268.046 18.0385 271.436 17.9878 274.9C17.9371 278.363 18.7924 281.779 20.469 284.81L52.571 342.98C54.2884 346.098 56.8114 348.699 59.8766 350.509C62.9419 352.32 66.437 353.274 69.997 353.273H123.206L171.171 390.654C172.427 391.644 173.806 392.392 175.198 393.025L122.163 412.558C113.565 405.16 102.487 397.462 83.479 397.462C61.588 397.462 50.18 407.687 41.028 415.901C33.344 422.79 28.272 427.339 16.844 427.339C9.29099 427.339 3.156 433.474 3.156 441.036C3.156 448.6 9.29099 454.729 16.844 454.729C38.752 454.729 50.147 444.506 59.311 436.291C66.995 429.404 72.071 424.848 83.479 424.848C94.891 424.848 99.979 429.405 107.651 436.291C116.811 444.506 128.223 454.729 150.116 454.729C172.009 454.729 183.403 444.506 192.565 436.291C200.253 429.404 205.325 424.848 216.735 424.848C228.147 424.848 233.221 429.405 240.891 436.291C250.053 444.506 261.45 454.729 283.344 454.729C305.248 454.729 316.643 444.506 325.807 436.291C333.475 429.404 338.551 424.848 349.963 424.848C357.531 424.848 363.664 418.719 363.664 411.157C363.662 403.6 357.529 397.465 349.961 397.465ZM349.961 454.732C328.066 454.732 316.672 464.962 307.51 473.171C299.824 480.066 294.766 484.614 283.342 484.614C271.946 484.614 266.869 480.065 259.186 473.171C250.022 464.962 238.625 454.732 216.733 454.732C194.829 454.732 183.432 464.962 174.27 473.171C166.598 480.066 161.524 484.614 150.114 484.614C138.688 484.614 133.616 480.065 125.944 473.171C116.78 464.958 105.385 454.732 83.477 454.732C61.586 454.732 50.178 464.959 41.026 473.171C33.342 480.066 28.27 484.614 16.842 484.614C9.289 484.614 3.15399 490.743 3.15399 498.311C3.15399 505.872 9.289 512 16.842 512C38.75 512 50.145 501.779 59.309 493.561C66.993 486.672 72.069 482.123 83.477 482.123C94.889 482.123 99.977 486.672 107.649 493.561C116.809 501.78 128.221 512 150.114 512C172.007 512 183.401 501.779 192.563 493.561C200.251 486.672 205.323 482.123 216.733 482.123C228.145 482.123 233.219 486.672 240.889 493.561C250.051 501.78 261.448 512 283.342 512C305.246 512 316.641 501.779 325.805 493.561C333.473 486.672 338.549 482.123 349.961 482.123C357.529 482.123 363.662 475.994 363.662 468.428C363.662 460.865 357.529 454.732 349.961 454.732Z" fill="#F57C00"/>
<path d="M27.935 247.893C43.3631 247.893 55.87 235.386 55.87 219.958C55.87 204.53 43.3631 192.023 27.935 192.023C12.5069 192.023 0 204.53 0 219.958C0 235.386 12.5069 247.893 27.935 247.893Z" fill="#F57C00"/>
</svg>
